<svg width="129" height="65" viewBox="0 0 129 65" fill="none" xmlns="http://www.w3.org/2000/svg">
<g filter="url(#filter0_i_1_67)">
<circle cx="66.9088" cy="23.0871" r="21" transform="rotate(5.22622 66.9088 23.0871)" fill="#F0EBFF"/>
<circle cx="111.801" cy="48.281" r="15" transform="rotate(5.22622 111.801 48.281)" fill="#F0EBFF"/>
<circle cx="14.0227" cy="46.8687" r="12.5" transform="rotate(5.22622 14.0227 46.8687)" fill="#F0EBFF"/>
<circle cx="26.9687" cy="48.0528" r="12.5" transform="rotate(5.22622 26.9687 48.0528)" fill="#F0EBFF"/>
<circle cx="54.5821" cy="48.0681" r="15" transform="rotate(5.22622 54.5821 48.0681)" fill="#F0EBFF"/>
<circle cx="71.8757" cy="45.6333" r="15" transform="rotate(5.22622 71.8757 45.6333)" fill="#F0EBFF"/>
<circle cx="96.7718" cy="47.9105" r="15" transform="rotate(5.22622 96.7718 47.9105)" fill="#F0EBFF"/>
<circle cx="86.7284" cy="36.9501" r="21" transform="rotate(5.22622 86.7284 36.9501)" fill="#F0EBFF"/>
<circle cx="40.5553" cy="36.7434" r="21" transform="rotate(5.22622 40.5553 36.7434)" fill="#F0EBFF"/>
</g>
<defs>
<filter id="filter0_i_1_67" x="0.436066" y="0.261566" width="127.668" height="68.3234" filterUnits="userSpaceOnUse" color-interpolation-filters="sRGB">
<feFlood flood-opacity="0" result="BackgroundImageFix"/>
<feBlend mode="normal" in="SourceGraphic" in2="BackgroundImageFix" result="shape"/>
<feColorMatrix in="SourceAlpha" type="matrix" values="0 0 0 0 0 0 0 0 0 0 0 0 0 0 0 0 0 0 127 0" result="hardAlpha"/>
<feOffset dy="4"/>
<feGaussianBlur stdDeviation="2"/>
<feComposite in2="hardAlpha" operator="arithmetic" k2="-1" k3="1"/>
<feColorMatrix type="matrix" values="0 0 0 0 0 0 0 0 0 0 0 0 0 0 0 0 0 0 0.25 0"/>
<feBlend mode="normal" in2="shape" result="effect1_innerShadow_1_67"/>
</filter>
</defs>
</svg>
